# xmcd
#
# Track frame offsets:
#	375
#	7633
#	25224
#	47164
#	66331
#	85524
#	99038
#	115997
#	131891
#	140705
#	154066
#	162443
#	171360
#	183794
#
# Disc length: 2651 seconds
#
# Revision: 1
# Processed by: cddbd v1.5.2PL0 Copyright (c) Steve Scherf et al.
# Submitted via: dBpowerAMP V4.0
#
DISCID=b20a560e
DTITLE=Flying Tractors - La Botte de Foin
DYEAR=1997
DGENRE=Country
TTITLE0=Ca va y aller
TTITLE1=Y'a une botte de foin dans la Maison
TTITLE2=Y can Pecno
TTITLE3=Hee gros, pourquoi t'est devenu alcoolo
TTITLE4=Quand on a tué le cochon chez la zinzine
TTITLE5=Léon a buté Isabelle
TTITLE6=Istambul Boulevard
TTITLE7=Mais c'est la joie dans la basse-cour
TTITLE8=Tu me la rends cette brouette Henri ?
TTITLE9=Faudrait y'arreter Yéyé la téquila
TTITLE10=Le retour de la papouche
TTITLE11=Pendant ce temps là que fait Suzy ?
TTITLE12=Mouche toi Katja
TTITLE13=J'aime labourer bourré
EXTD=Album of a french group of country from France
EXTT0=
EXTT1=
EXTT2=
EXTT3=
EXTT4=
EXTT5=
EXTT6=
EXTT7=
EXTT8=
EXTT9=
EXTT10=
EXTT11=
EXTT12=
EXTT13=
PLAYORDER=
